<svg width="331" height="475" viewBox="0 0 331 475" fill="none" xmlns="http://www.w3.org/2000/svg">
<g filter="url(#filter0_b_267_1186)">
<path d="M0 474.059L218.797 474.059C280.765 474.059 331 423.824 331 361.856L331 3.05176e-05L112.203 3.05176e-05C50.2352 3.05176e-05 0 50.2352 0 112.203L0 474.059Z" fill="url(#paint0_linear_267_1186)"/>
<path d="M0.561017 473.498L218.797 473.498C280.455 473.498 330.439 423.514 330.439 361.856L330.439 0.561035L112.203 0.561035C50.545 0.561035 0.561017 50.545 0.561017 112.203L0.561017 473.498Z" stroke="url(#paint1_linear_267_1186)" stroke-opacity="0.5" stroke-width="1.12203"/>
</g>
<defs>
<filter id="filter0_b_267_1186" x="-11.2203" y="-11.2203" width="353.441" height="496.5" filterUnits="userSpaceOnUse" color-interpolation-filters="sRGB">
<feFlood flood-opacity="0" result="BackgroundImageFix"/>
<feGaussianBlur in="BackgroundImageFix" stdDeviation="5.61017"/>
<feComposite in2="SourceAlpha" operator="in" result="effect1_backgroundBlur_267_1186"/>
<feBlend mode="normal" in="SourceGraphic" in2="effect1_backgroundBlur_267_1186" result="shape"/>
</filter>
<linearGradient id="paint0_linear_267_1186" x1="-36.8614" y1="492.421" x2="393.683" y2="35.8687" gradientUnits="userSpaceOnUse">
<stop stop-color="white" stop-opacity="0.5"/>
<stop offset="1" stop-color="#0047FF" stop-opacity="0.05"/>
</linearGradient>
<linearGradient id="paint1_linear_267_1186" x1="0" y1="474.059" x2="375.989" y2="24.2522" gradientUnits="userSpaceOnUse">
<stop stop-color="white"/>
<stop offset="1" stop-color="white" stop-opacity="0.5"/>
</linearGradient>
</defs>
</svg>
