<svg width="425" height="87" viewBox="0 0 425 87" fill="none" xmlns="http://www.w3.org/2000/svg">
<path d="M-572.792 25.3323C-572.792 25.3323 -531.488 2.33593 -474.563 0.341741C-407.769 -1.99823 -408.517 24.8019 -340.973 25.3323C-270.428 25.8862 -268.141 0.550275 -197.56 0.341741C-125.755 0.129592 -121.947 26.1078 -50.2175 25.3323C17.2903 24.6024 15.8986 1.21673 83.3729 0.341741C155.991 -0.599958 160.932 25.5417 233.662 25.3323C305.161 25.1264 308.531 0.64795 380.022 0.341741C453.366 0.0275964 459.237 26.8816 532.276 25.3323C597.238 23.9544 593.321 2.27515 658.008 0.341741C734.8 -1.95348 745.6 24.913 823.032 25.3323C903.358 25.7673 916.556 0.0552799 996.896 0.341741C1075.3 0.621302 1086.57 24.3701 1164.87 25.3323C1250.34 26.3827 1269.77 -2.50281 1354.45 0.341741C1428.13 2.81688 1498.84 28.6792 1498.84 28.6792V40.6372V87H-572.792V25.3323Z" fill="#A5BBF8"/>
</svg>
